<svg xmlns="http://www.w3.org/2000/svg" viewBox="0 0 900 650" role="img" aria-label="Tape measure illustration"><defs><linearGradient id="bg" x1="0" y1="0" x2="1" y2="1"><stop stop-color="#fff7ed"/><stop offset="1" stop-color="#fed7aa"/></linearGradient></defs><rect width="900" height="650" fill="url(#bg)"/><ellipse cx="470" cy="510" rx="310" ry="42" fill="#9a3412" opacity=".16"/><rect x="190" y="245" width="520" height="110" rx="34" fill="#facc15" stroke="#a16207" stroke-width="8"/><g font-family="Arial, sans-serif" fill="#78350f" font-weight="800"><text x="235" y="314" font-size="34">0</text><text x="335" y="314" font-size="34">10</text><text x="455" y="314" font-size="34">20</text><text x="575" y="314" font-size="34">30</text></g><g stroke="#78350f" stroke-width="5"><path d="M270 250v42M310 250v24M350 250v42M390 250v24M430 250v42M470 250v24M510 250v42M550 250v24M590 250v42M630 250v24M670 250v42"/></g><circle cx="315" cy="405" r="78" fill="#fef3c7" stroke="#a16207" stroke-width="9"/><path d="M270 405a45 45 0 1 1 90 0a45 45 0 1 1-90 0" fill="#facc15"/><text x="450" y="598" text-anchor="middle" font-family="Arial, sans-serif" font-size="34" font-weight="800" fill="#9a3412">Tape measure</text></svg>